<svg width="369" height="377" viewBox="0 0 369 377" fill="none" xmlns="http://www.w3.org/2000/svg">
<g clip-path="url(#clip0_2_8)">
<path d="M184.505 12L344.284 98.7546L344.279 272.255L184.495 359L24.7158 272.245L24.7208 98.7454L184.505 12Z" fill="url(#paint0_linear_2_8)"/>
<path d="M47.7227 136.213C46.4657 136.937 45.1473 137.512 43.7675 137.937C42.377 138.344 41.179 138.53 40.1733 138.493L39.6776 133.978C40.6065 134.009 41.6168 133.883 42.7087 133.599C43.7899 133.296 44.7927 132.878 45.717 132.346C46.5674 131.856 47.1202 131.427 47.3756 131.058C47.6389 130.661 47.6747 130.295 47.483 129.962C47.2914 129.63 46.9364 129.526 46.4182 129.653C45.9079 129.75 45.144 130.005 44.1267 130.419C42.8399 130.963 41.7021 131.36 40.7134 131.609C39.7431 131.848 38.7666 131.819 37.7838 131.524C36.8011 131.228 35.9744 130.498 35.3036 129.333C34.7499 128.372 34.5466 127.357 34.6938 126.287C34.8303 125.199 35.3215 124.129 36.1672 123.075C37.0209 121.993 38.2148 121.009 39.7492 120.126C40.8399 119.497 41.9852 118.985 43.1852 118.59C44.3851 118.194 45.4627 117.992 46.4179 117.983L46.8977 122.471C45.1408 122.498 43.4859 122.959 41.9331 123.853C41.1012 124.332 40.5497 124.785 40.2786 125.212C39.9969 125.621 39.9466 125.982 40.1276 126.296C40.3299 126.648 40.6862 126.775 41.1966 126.678C41.6963 126.562 42.4786 126.296 43.5436 125.88C44.8886 125.351 46.037 124.973 46.9889 124.745C47.9407 124.517 48.8987 124.556 49.8629 124.862C50.835 125.139 51.6511 125.851 52.3112 126.997C52.8543 127.94 53.0575 128.955 52.921 130.043C52.7739 131.113 52.2589 132.185 51.3761 133.259C50.5119 134.323 49.2941 135.308 47.7227 136.213ZM73.6914 100.908L78.4669 109.199C79.7553 111.436 80.1038 113.537 79.5125 115.502C78.9291 117.439 77.4727 119.078 75.1435 120.419C72.9621 121.676 70.9403 121.991 69.0779 121.365C68.7219 123.269 67.444 124.854 65.2441 126.121C62.8964 127.473 60.7387 127.916 58.7711 127.449C56.8113 126.953 55.1872 125.587 53.8988 123.35L49.1233 115.059L54.3919 112.024L58.9597 119.955C59.5666 121.008 60.1895 121.684 60.8282 121.98C61.4563 122.259 62.14 122.185 62.8795 121.759C63.6189 121.333 64.0298 120.764 64.112 120.052C64.1942 119.34 63.9372 118.466 63.3409 117.431L58.7731 109.501L64.0416 106.466L68.6095 114.397C69.2058 115.432 69.8325 116.093 70.4897 116.379C71.1469 116.665 71.8453 116.595 72.5847 116.169C73.3241 115.743 73.7311 115.189 73.8055 114.506C73.8692 113.804 73.5976 112.927 72.9907 111.873L68.4228 103.943L73.6914 100.908ZM77.5438 98.689L82.8124 95.6544L91.4689 110.684L86.2004 113.718L77.5438 98.689ZM79.2198 95.508C78.2585 96.0616 77.3277 96.2408 76.4274 96.0454C75.527 95.85 74.8479 95.3549 74.3901 94.56C73.9322 93.7651 73.8447 92.9292 74.1275 92.0524C74.4102 91.1756 75.0323 90.4603 75.9935 89.9067C76.9548 89.353 77.8803 89.1646 78.77 89.3415C79.649 89.4999 80.3175 89.9765 80.7753 90.7714C81.2545 91.6033 81.358 92.4669 81.0859 93.3622C80.8031 94.239 80.1811 94.9543 79.2198 95.508ZM106.224 81.8374C108.073 80.7726 109.862 80.4807 111.591 80.9617C113.339 81.432 114.857 82.7855 116.146 85.0224L121.097 93.6184L115.828 96.653L111.372 88.9166C110.765 87.8629 110.115 87.2036 109.421 86.9387C108.745 86.6632 108.047 86.733 107.326 87.1483C106.531 87.6061 106.053 88.2508 105.892 89.0822C105.73 89.9136 105.974 90.8932 106.624 92.0208L110.92 99.48L105.652 102.515L101.196 94.7781C100.014 92.7262 98.6649 92.1367 97.1491 93.0098C96.3357 93.4783 95.8484 94.1283 95.6872 94.9597C95.526 95.7912 95.7701 96.7707 96.4196 97.8984L100.716 105.358L95.4474 108.392L86.7909 93.3629L91.8098 90.472L92.7202 92.0526C92.9234 91.1231 93.3188 90.2922 93.9064 89.5599C94.5018 88.7984 95.2524 88.1568 96.1582 87.6351C97.2119 87.0281 98.2665 86.6792 99.322 86.5883C100.377 86.4973 101.393 86.7003 102.368 87.197C102.523 86.0984 102.937 85.0848 103.608 84.1564C104.28 83.228 105.152 82.455 106.224 81.8374ZM118.899 81.6642L126.996 77.0005L129.327 81.049L121.23 85.7127L118.899 81.6642Z" fill="url(#paint1_linear_2_8)"/>
<path d="M141.888 81.9753C140.631 82.6993 139.313 83.2741 137.933 83.6996C136.543 84.1065 135.345 84.2919 134.339 84.2556L133.843 79.7405C134.772 79.7717 135.782 79.6452 136.874 79.3609C137.956 79.0582 138.958 78.6407 139.883 78.1083C140.733 77.6185 141.286 77.1893 141.541 76.8206C141.805 76.4228 141.84 76.0575 141.649 75.7247C141.457 75.392 141.102 75.2887 140.584 75.4148C140.073 75.5118 139.31 75.7671 138.292 76.1808C137.006 76.725 135.868 77.1218 134.879 77.3713C133.909 77.6101 132.932 77.5817 131.949 77.2861C130.967 76.9904 130.14 76.2603 129.469 75.0957C128.915 74.1344 128.712 73.119 128.859 72.0495C128.996 70.9615 129.487 69.8908 130.333 68.8374C131.186 67.7548 132.38 66.7717 133.915 65.8879C135.005 65.2597 136.151 64.7477 137.351 64.352C138.551 63.9563 139.628 63.7541 140.584 63.7456L141.063 68.233C139.306 68.2602 137.652 68.721 136.099 69.6154C135.267 70.0946 134.715 70.5476 134.444 70.9746C134.163 71.383 134.112 71.7444 134.293 72.0586C134.495 72.4099 134.852 72.537 135.362 72.44C135.862 72.3245 136.644 72.0585 137.709 71.6421C139.054 71.1136 140.203 70.7352 141.154 70.507C142.106 70.2788 143.064 70.3179 144.029 70.6242C145.001 70.9013 145.817 71.613 146.477 72.7591C147.02 73.7019 147.223 74.7173 147.087 75.8053C146.939 76.8749 146.425 77.947 145.542 79.0217C144.677 80.0857 143.46 81.0702 141.888 81.9753ZM161.327 69.6342C161.043 70.167 160.62 70.6937 160.058 71.2142C159.515 71.7242 158.883 72.1867 158.162 72.602C156.202 73.7307 154.419 74.1178 152.812 73.7634C151.223 73.3984 149.88 72.2639 148.783 70.3598L141.356 57.4657L146.625 54.4311L148.877 58.341L152.288 56.3765L154.556 60.314L151.145 62.2785L154.02 67.2698C154.339 67.8244 154.723 68.1697 155.17 68.3057C155.618 68.4418 156.082 68.3714 156.563 68.0946C157.173 67.7432 157.618 67.2773 157.9 66.6968L161.327 69.6342ZM171.053 44.8295L179.709 59.8587L174.69 62.7495L173.828 61.2522C173.519 62.9811 172.375 64.4153 170.397 65.5546C169.029 66.3425 167.601 66.7469 166.111 66.7679C164.629 66.7598 163.215 66.3558 161.868 65.556C160.539 64.7456 159.428 63.5639 158.533 62.0111C157.639 60.4582 157.18 58.9132 157.156 57.3759C157.14 55.8094 157.506 54.3925 158.253 53.1251C159.019 51.8471 160.085 50.8141 161.453 50.0262C163.228 49.004 164.922 48.7177 166.535 49.1673L165.784 47.864L171.053 44.8295ZM169.095 60.7286C170.019 60.1962 170.596 59.4454 170.826 58.4761C171.045 57.4884 170.829 56.4307 170.18 55.303C169.541 54.1939 168.745 53.4954 167.791 53.2076C166.838 52.9198 165.899 53.0421 164.974 53.5744C164.05 54.1068 163.473 54.8576 163.244 55.8269C163.014 56.7962 163.219 57.8354 163.857 58.9445C164.507 60.0722 165.314 60.7892 166.278 61.0955C167.232 61.3833 168.171 61.261 169.095 60.7286ZM192.982 51.4016C192.698 51.9345 192.275 52.4612 191.713 52.9817C191.17 53.4916 190.538 53.9542 189.817 54.3695C187.857 55.4981 186.074 55.8853 184.466 55.5309C182.877 55.1659 181.534 54.0314 180.438 52.1273L173.011 39.2332L178.28 36.1986L180.532 40.1084L183.942 38.1439L186.21 42.0815L182.8 44.046L185.674 49.0372C185.994 49.5918 186.377 49.9372 186.825 50.0732C187.273 50.2093 187.737 50.1389 188.217 49.8621C188.827 49.5107 189.273 49.0448 189.554 48.4643L192.982 51.4016ZM201.515 47.6315C200.258 48.3555 198.939 48.9303 197.56 49.3557C196.169 49.7627 194.971 49.9481 193.965 49.9118L193.47 45.3966C194.399 45.4279 195.409 45.3014 196.501 45.0171C197.582 44.7144 198.585 44.2969 199.509 43.7645C200.359 43.2747 200.912 42.8455 201.168 42.4768C201.431 42.079 201.467 41.7137 201.275 41.3809C201.083 41.0482 200.729 40.9449 200.21 41.071C199.7 41.168 198.936 41.4233 197.919 41.837C196.632 42.3812 195.494 42.778 194.505 43.0275C193.535 43.2663 192.559 43.2379 191.576 42.9423C190.593 42.6466 189.766 41.9165 189.096 40.7519C188.542 39.7906 188.339 38.7752 188.486 37.7057C188.622 36.6176 189.114 35.5469 189.959 34.4936C190.813 33.411 192.007 32.4279 193.541 31.5441C194.632 30.9159 195.777 30.4039 196.977 30.0082C198.177 29.6125 199.255 29.4103 200.21 29.4018L200.69 33.8892C198.933 33.9164 197.278 34.3772 195.725 35.2716C194.893 35.7507 194.342 36.2038 194.071 36.6307C193.789 37.0392 193.739 37.4006 193.92 37.7148C194.122 38.0661 194.478 38.1932 194.989 38.0962C195.488 37.9807 196.271 37.7147 197.336 37.2983C198.681 36.7697 199.829 36.3914 200.781 36.1632C201.733 35.935 202.691 35.9741 203.655 36.2804C204.627 36.5575 205.443 37.2692 206.103 38.4153C206.646 39.3581 206.85 40.3735 206.713 41.4615C206.566 42.531 206.051 43.6031 205.168 44.6778C204.304 45.7419 203.086 46.7264 201.515 47.6315Z" fill="#FBFBFB"/>
<path d="M279.904 157.1C279.904 154.066 279.305 151.063 278.141 148.26C276.978 145.457 275.273 142.911 273.123 140.766C270.973 138.621 268.421 136.919 265.612 135.758C262.803 134.597 259.793 134 256.753 134C253.712 134 250.702 134.597 247.893 135.758C245.084 136.919 242.532 138.621 240.382 140.766C238.233 142.911 236.527 145.457 235.364 148.26C234.201 151.063 233.602 154.066 233.602 157.1C233.602 160.134 234.201 163.137 235.364 165.94C236.527 168.743 238.233 171.289 240.382 173.434C242.532 175.579 245.084 177.281 247.893 178.442C250.702 179.603 253.712 180.2 256.753 180.2C259.793 180.2 262.803 179.603 265.612 178.442C268.421 177.281 270.973 175.579 273.123 173.434C275.273 171.289 276.978 168.743 278.141 165.94C279.305 163.137 279.904 160.134 279.904 157.1ZM172.996 176.157L136.368 206.641C136.822 206.641 137.277 206.6 137.732 206.6C151.416 206.517 165.141 210.807 176.758 219.552C185.894 226.4 188.788 226.4 197.924 219.552C209.293 211.014 222.688 206.682 236.124 206.6C238.108 206.6 240.134 206.683 242.118 206.848C238.687 194.473 232.072 183.046 222.77 173.765C215.164 166.175 205.986 160.276 195.899 156.523L167.539 145.921C156.211 141.673 143.561 142.827 133.184 149.056L111.067 162.298C104.783 166.051 102.757 174.136 106.519 180.406C110.281 186.676 118.384 188.697 124.668 184.944L146.786 171.661C150.258 169.599 154.475 169.228 158.237 170.63L172.996 176.157ZM218.471 251.191C227.277 244.55 239.1 244.55 247.906 251.191C255.761 257.131 265.228 262.824 275.687 264.927C286.642 267.155 298.135 265.257 309.049 257.049C313.431 253.749 314.299 247.561 310.992 243.189C307.685 238.816 301.484 237.95 297.102 241.25C290.942 245.87 285.278 246.654 279.614 245.499C273.454 244.261 266.84 240.59 259.853 235.351C243.978 223.389 222.44 223.389 206.523 235.351C196.602 242.818 189.698 246.2 183.992 246.2C178.287 246.2 171.383 242.818 161.462 235.351C145.587 223.389 124.048 223.389 108.132 235.351C99.202 242.075 91.0579 245.994 83.7818 245.952C79.8131 245.911 75.555 244.715 70.8834 241.209C66.5013 237.909 60.3001 238.775 56.9928 243.148C53.6856 247.52 54.5951 253.749 58.9772 257.049C66.8733 262.989 75.2656 265.711 83.6992 265.752C97.7138 265.835 110.281 258.575 120.121 251.191C128.926 244.55 140.75 244.55 149.555 251.191C159.56 258.74 171.177 266 184.034 266C196.891 266 208.466 258.699 218.512 251.191H218.471Z" fill="#C3FBFF"/>
</g>
<defs>
<linearGradient id="paint0_linear_2_8" x1="62.8773" y1="80.1931" x2="285.187" y2="317.949" gradientUnits="userSpaceOnUse">
<stop offset="0.346398" stop-color="#62D4D8"/>
<stop offset="1" stop-color="#3899E9"/>
</linearGradient>
<linearGradient id="paint1_linear_2_8" x1="36.1161" y1="132.603" x2="210.36" y2="32.2419" gradientUnits="userSpaceOnUse">
<stop stop-color="#56ACE9"/>
<stop offset="1" stop-color="#2B5FCF"/>
</linearGradient>
<clipPath id="clip0_2_8">
<rect width="369" height="377" fill="white"/>
</clipPath>
</defs>
</svg>
